<?xml version="1.0" encoding="utf-8"?>
<!-- Generator: Adobe Illustrator 28.1.0, SVG Export Plug-In . SVG Version: 6.00 Build 0)  -->
<svg version="1.1" id="Layer_1" xmlns="http://www.w3.org/2000/svg" xmlns:xlink="http://www.w3.org/1999/xlink" x="0px" y="0px"
	 viewBox="0 0 1280 720" style="enable-background:new 0 0 1280 720;" xml:space="preserve">
<g>
	<path d="M78.5,7.1v21.6H55.2V133H30.3V28.7H7V7.1H78.5z"/>
	<path d="M147.1,84.3v6.5h-43.5c0,7.2,0.9,12.9,2.7,17.1c0.6,1.4,1.7,2.9,3.2,4.4c1.6,1.5,3.2,2.2,4.9,2.2c1.7,0,3.8-1.4,6.3-4.3
		c2.5-2.9,4.5-6.4,5.9-10.4l18.5,13.1c-3.2,6-8.2,11.2-14.8,15.6c-6.7,4.4-12,6.7-16.1,6.7c-4.1,0-10-3.2-17.7-9.5
		c-7.7-6.4-12.4-11.3-14.1-14.8c-1.7-3.5-2.5-12.3-2.5-26.3c0-14,0.8-22.7,2.5-26.3c1.7-3.5,6.4-8.5,14.1-14.8
		c7.7-6.4,13.4-9.5,17-9.5s9.3,3.2,17,9.5c7.7,6.4,12.4,11.3,14.1,14.8C146.2,61.8,147.1,70.5,147.1,84.3z M122.2,61.7
		c-0.9-1.6-2.3-3.2-4.1-4.8c-1.9-1.6-3.6-2.3-5.2-2.3c-1.6,0-3.4,1.6-5.5,4.8c-2,3.2-3.3,7.9-3.8,14.3h20.5
		C123.7,67.3,123.1,63.3,122.2,61.7z"/>
	<path d="M223.9,103.9c0,3.7-4.6,9.9-13.8,18.4c-9.2,8.6-16.1,12.9-20.6,12.9s-10.1-2.2-16.7-6.7c-6.7-4.4-11.6-9.7-14.8-15.6
		l18.5-12.8c6,8.4,10.4,12.6,13.1,12.6c2,0,4.6-1,7.6-3.1c3-2,4.5-4,4.5-5.8c0-0.5-1.4-1.5-4.3-3.1c-2.9-1.6-6.4-3.7-10.5-6.1
		c-4.1-2.5-8.2-5.2-12.3-8.3c-4.1-3.1-7.6-6.8-10.4-11.2c-2.9-4.4-4.3-8.9-4.3-13.5c0-4.6,4.1-10.3,12.2-17.3
		c8.2-7,14.4-10.4,18.8-10.4c4.4,0,9.9,2.2,16.5,6.7c6.7,4.4,11.6,9.7,14.8,15.6L203.5,69c-6-8.4-10.4-12.6-13.1-12.6
		c-1.4,0-3.2,0.8-5.3,2.4c-2.1,1.6-3.1,3.1-3.1,4.4c0,1.3,2.2,3.4,6.6,6.1c4.4,2.8,9.2,5.6,14.4,8.5c5.2,2.9,10,6.8,14.4,11.5
		C221.7,94.2,223.9,99,223.9,103.9z"/>
	<path d="M297.1,103.9c0,3.7-4.6,9.9-13.8,18.4c-9.2,8.6-16.1,12.9-20.6,12.9s-10.1-2.2-16.7-6.7c-6.7-4.4-11.6-9.7-14.8-15.6
		l18.5-12.8c6,8.4,10.4,12.6,13.1,12.6c2,0,4.6-1,7.6-3.1c3-2,4.5-4,4.5-5.8c0-0.5-1.4-1.5-4.3-3.1c-2.9-1.6-6.4-3.7-10.5-6.1
		c-4.1-2.5-8.2-5.2-12.3-8.3c-4.1-3.1-7.6-6.8-10.4-11.2c-2.9-4.4-4.3-8.9-4.3-13.5c0-4.6,4.1-10.3,12.2-17.3
		c8.2-7,14.4-10.4,18.8-10.4c4.4,0,9.9,2.2,16.5,6.7c6.7,4.4,11.6,9.7,14.8,15.6L276.8,69c-6-8.4-10.4-12.6-13.1-12.6
		c-1.4,0-3.2,0.8-5.3,2.4c-2.1,1.6-3.1,3.1-3.1,4.4c0,1.3,2.2,3.4,6.6,6.1c4.4,2.8,9.2,5.6,14.4,8.5c5.2,2.9,10,6.8,14.4,11.5
		C294.9,94.2,297.1,99,297.1,103.9z"/>
	<path d="M374.4,36.1v73.7c0.7,4.2,3.5,7.9,8.5,11.2l-16.2,13.8c-1.6-1.1-3.5-3-5.8-5.8c-2.3-2.8-4.2-5.6-5.8-8.5
		c-10,9.7-16.9,14.6-20.9,14.6c-2.9,0-7.5-3.2-13.9-9.5c-6.4-6.4-10.4-11.5-12-15.5c-1.6-4-2.3-12.5-2.3-25.6s0.8-21.7,2.3-25.6
		c1.6-4,5.5-9.1,12-15.5c6.4-6.4,11.1-9.5,13.9-9.5c4.2,0,11,4.3,20.3,13l2.2-10.8H374.4z M349.4,63.5c-0.8-1.5-2.5-3.1-5.1-4.7
		c-2.6-1.6-4.5-2.4-5.8-2.4c-1.3,0-2.7,0.8-4.2,2.3c-1.5,1.6-2.5,3-3,4.3c-1.6,2.2-2.3,9.3-2.3,21.5c0,12.2,0.8,19.3,2.3,21.5
		c0.5,1.2,1.5,2.6,3,4.2c1.5,1.6,2.9,2.4,4.2,2.4c1.3,0,3.3-0.8,5.8-2.4c2.6-1.6,4.3-3.1,5-4.4c0.8-1.3,1.2-8.3,1.3-21
		C350.7,72.1,350.3,65,349.4,63.5z"/>
</g>
</svg>
